<svg xmlns="http://www.w3.org/2000/svg" viewBox="0 9.800000190734863 276.78106689453125 39.29999923706055" data-asc="0.8" width="276.78106689453125" height="39.29999923706055"><defs/><g><g fill="#000000"><g transform="translate(0, 0)"><path d="M34.25 49.10Q33.75 49.10 33.25 49.05Q32.75 49 32.20 48.90Q28.80 48.25 26.05 46.65Q23.30 45.05 21.13 42.92Q18.95 40.80 17.18 38.45Q15.40 36.10 13.95 33.92Q12.50 31.75 11.25 30.10Q11.15 29.85 11.03 29.95Q10.90 30.05 10.90 30.05Q9.80 32.15 8.88 33.98Q7.95 35.80 7.50 36.90Q7.10 38 7.10 38.45Q7.10 39.15 7.65 39.15Q8.35 39.15 9.15 38.20Q9.70 37.55 10.18 36.98Q10.65 36.40 11.00 36.50Q11.05 36.55 11.05 36.65Q11.05 36.90 10.70 37.33Q10.35 37.75 10.30 37.80Q9.95 38.30 9.38 39.15Q8.80 40 8.18 40.67Q7.55 41.35 6.85 41.35Q6.75 41.35 6.28 41.25Q5.80 41.15 5.38 41Q4.95 40.85 4.90 40.65Q4.80 39.70 5.38 37.98Q5.95 36.25 6.95 34.15Q7.95 32.05 9.00 30.05Q8.20 29.85 7.85 29.70Q7.35 29.35 7.35 28.75Q7.35 28.25 7.75 27.85Q8.15 27.45 8.95 27.45Q9.20 27.45 9.55 27.55Q9.90 27.65 10.10 27.90Q10.95 26.40 11.63 25.15Q12.30 23.90 12.60 23.20Q12.90 22.65 13.00 22.27Q13.10 21.90 13.10 21.70Q13.10 21.40 13.00 21.20Q13.10 20.60 13.73 19.60Q14.35 18.60 15.30 17.60Q16.25 16.60 17.35 15.92Q18.45 15.25 19.40 15.25Q19.70 15.25 20.32 15.42Q20.95 15.60 21.52 15.95Q22.10 16.30 22.25 16.95Q22.30 17.10 22.30 17.25Q22.30 17.40 22.20 17.40Q22.10 17.40 21.93 17.32Q21.75 17.25 21.65 17.25Q20.25 17.25 18.52 18.92Q16.80 20.60 15.03 23.20Q13.25 25.80 11.70 28.60Q11.95 28.65 12.28 28.73Q12.60 28.80 13.05 28.80Q13.25 28.80 13.43 28.80Q13.60 28.80 13.80 28.75Q17 28.40 20.32 27.50Q23.65 26.60 26.55 25.15Q29.45 23.70 31.35 21.75Q33.10 19.90 33.10 17.95Q33.10 16.50 32 15.25Q30.90 14 28.55 13.35Q27.15 12.95 25.38 12.75Q23.60 12.55 21.55 12.55Q18.35 12.55 14.97 13.10Q11.60 13.65 8.65 14.77Q5.70 15.90 3.70 17.60Q1.70 19.30 1.30 21.65Q1.15 22.85 1.75 23.55Q2.35 24.25 3.23 24.63Q4.10 25 4.60 25.30Q4.95 25.60 4.95 25.80Q4.95 26.15 4.30 26.05Q3.60 25.90 2.57 25.35Q1.55 24.80 0.77 23.82Q0 22.85 0 21.55Q0 21.35 0.02 21.15Q0.05 20.95 0.10 20.75Q0.10 20.70 0.07 20.42Q0.05 20.15 0.05 19.95Q0.35 18.40 1.58 17.02Q2.80 15.65 4.38 14.57Q5.95 13.50 7.30 12.85Q9.65 11.70 12.95 11.02Q16.25 10.35 19.85 10.35Q22.05 10.35 24.23 10.65Q26.40 10.95 28.45 11.60Q31.30 12.55 32.88 14.52Q34.45 16.50 34.30 18.65Q34.15 20.70 32.88 22.35Q31.60 24 29.63 25.23Q27.65 26.45 25.27 27.32Q22.90 28.20 20.50 28.75Q18.55 29.15 16.40 29.40Q14.25 29.65 12.35 29.75Q14.50 32.40 16.63 35.08Q18.75 37.75 21.18 40.10Q23.60 42.45 26.50 44.13Q29.40 45.80 33.05 46.50Q33.80 46.65 34.60 46.65Q35.90 46.65 37.18 46.25Q38.45 45.85 39.30 45Q40.15 44.15 40.15 42.75Q40.15 42.50 40.13 42.25Q40.10 42 40.05 41.75Q40.05 41.65 40.02 41.60Q40 41.55 40 41.50Q40 41.05 40.35 41.05Q40.85 41.05 41 41.80Q41.15 42.55 41.15 43.20Q41.15 43.95 41.02 44.60Q40.90 45.25 40.70 45.80Q40.25 47.20 38.43 48.15Q36.60 49.10 34.25 49.10ZM41.25 40.50Q40.40 40.50 39.67 40.10Q38.95 39.70 38.60 38.60Q38.45 38.15 38.45 37.35Q38.45 36.25 38.75 34.90Q39.05 33.55 39.40 32.60Q39.15 32.70 38.48 33.48Q37.80 34.25 36.83 35.33Q35.85 36.40 34.67 37.48Q33.50 38.55 32.25 39.25Q31 39.95 29.80 39.95Q29 39.95 28.10 39.48Q27.20 39 26.65 38.25Q25.90 37.25 25.90 36.20Q25.90 34.85 26.82 33.40Q27.75 31.95 29.23 30.57Q30.70 29.20 32.38 28.07Q34.05 26.95 35.58 26.17Q37.10 25.40 38.05 25.15Q39.05 24.85 40.30 24.85Q41 24.85 41.75 25.02Q42.50 25.20 43 25.60Q43.40 25.80 43.65 26.15Q43.90 26.50 43.90 26.90Q43.90 27.30 43.55 27.15Q43.15 26.55 42.48 26.38Q41.80 26.20 41.10 26.20Q39.10 26.20 36.70 27.50Q34.30 28.80 32.40 30.55Q31.80 31.05 30.78 32.27Q29.75 33.50 28.90 34.95Q28.05 36.40 28.05 37.60Q28.05 38.25 28.40 38.75Q28.60 39.10 29.05 39.10Q29.75 39.10 30.93 38.35Q32.10 37.60 33.35 36.52Q34.60 35.45 35.63 34.45Q36.65 33.45 37.10 33Q37.35 32.75 38.08 31.98Q38.80 31.20 39.65 30.30Q40.50 29.40 41.17 28.75Q41.85 28.10 42.05 28.10Q42.30 28.10 42.88 28.23Q43.45 28.35 43.85 28.60Q44.25 28.85 44 29.25Q42.70 31.15 41.92 33.23Q41.15 35.30 41 36.50Q40.95 36.70 40.95 36.88Q40.95 37.05 40.95 37.25Q40.95 39.25 42.35 39.25Q43.10 39.25 44.35 38.35Q45.60 37.45 46.90 36.20Q48.20 34.95 49.28 33.77Q50.35 32.60 50.75 32Q50.90 31.85 51.05 31.85Q51.25 31.85 51.40 32.02Q51.55 32.20 51.40 32.45Q50.85 33.35 49.80 34.60Q48.75 35.85 47.45 37.10Q46.15 38.35 44.90 39.25Q44.25 39.75 43.25 40.13Q42.25 40.50 41.25 40.50ZM51.55 41.60Q50.60 41.60 50.25 40.80Q49.90 40 49.95 39.20Q50.20 37.75 50.68 36.23Q51.15 34.70 51.60 33.20Q51.70 32.85 51.85 32.30Q52 31.75 52.15 31.10Q51.80 31.60 51.38 32.20Q50.95 32.80 50.50 33.45Q50.30 33.70 50.05 33.70Q49.85 33.70 49.75 33.48Q49.65 33.25 49.85 33Q51 31.40 51.65 30.17Q52.30 28.95 52.55 28.20Q52.65 27.20 52.33 26.52Q52 25.85 51.15 25.85Q51 25.85 50.85 25.88Q50.70 25.90 50.50 25.95Q50.45 25.95 50.43 25.98Q50.40 26 50.35 26Q50.20 26 50.20 25.85Q50.20 25.70 50.50 25.30Q50.70 25.15 51.25 25.07Q51.80 25 52.30 24.95Q52.80 24.90 52.90 24.90Q53.60 24.90 54.20 25Q54.80 25.10 55.20 25.60Q55.45 25.85 55.60 26.25Q55.75 26.65 55.65 27.05Q55.65 27.35 55.38 28.07Q55.10 28.80 54.78 29.65Q54.45 30.50 54.18 31.17Q53.90 31.85 53.85 32.10Q53.35 33.50 52.85 35.20Q52.35 36.90 52.45 37.80Q54.80 34.70 57.25 31.60Q59.70 28.50 62.55 25.85Q63.70 24.70 64.90 23.72Q66.10 22.75 67.60 22.15Q68.25 21.90 68.80 21.90Q69.60 21.90 70.20 22.20Q70.80 22.50 71 22.90Q71.20 23.05 71.20 23.45Q71.20 24.05 70.80 24.05Q70.70 24.05 70.40 23.85Q70.15 23.60 69.65 23.60Q69.15 23.60 68.70 23.60Q67.65 23.60 66.08 24.65Q64.50 25.70 62.68 27.40Q60.85 29.10 59.05 31.10Q57.25 33.10 55.73 35.10Q54.20 37.10 53.23 38.70Q52.25 40.30 52.15 41.15Q52.15 41.40 51.90 41.50Q51.65 41.60 51.55 41.60ZM70.20 40.75Q67.95 40.75 66.30 39.70Q64.65 38.65 64.65 36.50Q64.65 35.35 65.35 33.70Q65.85 32.55 67.20 31.05Q68.55 29.55 70.35 28.13Q72.15 26.70 74 25.77Q75.85 24.85 77.35 24.85Q77.90 24.85 78.35 25Q79.20 25.30 79.53 25.95Q79.85 26.60 79.85 27.30Q79.85 27.95 79.65 28.55Q79.45 29.15 79.15 29.60Q78.25 30.95 76.58 32Q74.90 33.05 73.18 33.65Q71.45 34.25 70.35 34.35L70.25 34.35Q69.60 34.35 69.60 33.95Q69.60 33.70 70 33.70Q71.20 33.60 73.03 32.58Q74.85 31.55 76.25 30.45Q76.85 29.95 77.68 29.05Q78.50 28.15 78.50 27.30Q78.50 26.40 77.65 26.40Q77.20 26.40 76.73 26.60Q76.25 26.80 75.95 26.90Q74.50 27.60 72.75 29.07Q71 30.55 69.58 32.38Q68.15 34.20 67.60 36.05Q67.45 36.45 67.40 36.83Q67.35 37.20 67.35 37.55Q67.35 38.75 68.13 39.25Q68.90 39.75 70 39.75Q71.65 39.75 73.40 39.02Q75.15 38.30 76.80 37.15Q78.45 36 79.83 34.67Q81.20 33.35 82.15 32.10Q82.30 31.90 82.50 31.88Q82.70 31.85 82.75 31.95Q82.95 32 82.95 32.23Q82.95 32.45 82.85 32.65Q81.45 34.60 79.48 36.45Q77.50 38.30 75.13 39.52Q72.75 40.75 70.20 40.75ZM79.50 40.65Q79.15 40.65 79.30 40.30Q79.45 40 79.85 38.92Q80.25 37.85 80.78 36.35Q81.30 34.85 81.85 33.25Q82.40 31.65 82.88 30.25Q83.35 28.85 83.65 28.05Q83.75 27.75 83.85 27.17Q83.95 26.60 84.28 26.13Q84.60 25.65 85.40 25.65Q86.90 25.65 86.90 26.35Q86.90 26.60 86.65 27.20Q86.05 28.55 85.35 30.30Q84.65 32.05 84.10 33.60Q83.55 35.15 83.25 36Q83.75 35.30 84.88 34Q86.00 32.70 87.40 31.20Q88.80 29.70 90.33 28.30Q91.85 26.90 93.18 26.02Q94.50 25.15 95.45 25.15Q96.65 25.15 96.65 26.45Q96.65 26.90 96.40 27.80Q95.95 29.05 95.25 30.23Q94.55 31.40 94.00 32.70Q93.05 35.05 92.90 36.50Q92.85 36.70 92.85 36.88Q92.85 37.05 92.85 37.25Q92.85 39.25 94.20 39.25Q94.95 39.25 96.20 38.35Q97.45 37.45 98.78 36.20Q100.10 34.95 101.15 33.77Q102.20 32.60 102.60 32Q102.75 31.85 102.90 31.85Q103.10 31.85 103.23 32Q103.35 32.15 103.25 32.40Q102.80 33.25 101.73 34.52Q100.65 35.80 99.35 37.08Q98.05 38.35 96.80 39.25Q96.05 39.75 94.95 40.15Q93.85 40.55 92.75 40.50Q91.35 40.35 90.75 39.52Q90.15 38.70 90.15 37.55Q90.15 36.20 90.68 34.67Q91.20 33.15 91.85 31.80Q92.50 30.45 92.90 29.75Q93.30 28.95 93.30 28.50Q93.30 28.10 92.95 28.10Q92.60 28.10 91.90 28.55Q91.20 29 90.00 30.10Q88.90 31.05 87.65 32.58Q86.40 34.10 85.23 35.70Q84.05 37.30 83.18 38.45Q82.30 39.60 81.95 39.80Q81.70 39.95 80.83 40.30Q79.95 40.65 79.50 40.65ZM104.05 24.85Q103.90 24.85 103.78 24.65Q103.65 24.45 103.70 24.10Q103.80 23.55 103.83 22.70Q103.85 21.85 103.85 21.05L103.85 19.30Q103.90 18.85 103.85 18.42Q103.80 18 103.80 17.65Q103.80 17.10 104.10 16.75Q104.40 16.40 105.40 16.40Q106.00 16.40 106.20 16.70Q106.40 17 106.40 17.45Q106.40 17.95 106.23 18.57Q106.05 19.20 105.95 19.60Q105.70 20.55 105.30 21.68Q104.90 22.80 104.55 24.30Q104.40 24.85 104.05 24.85ZM109.60 42.50Q107.60 42.50 107.60 41.40Q107.60 40.60 108.45 39.75Q109.10 39.10 109.90 38.70Q110.70 38.30 110.90 38.30Q111.15 38.30 111.18 38.50Q111.20 38.70 110.95 38.80Q110.45 39.10 109.83 39.63Q109.20 40.15 109.20 40.75Q109.20 41.55 110.15 41.55Q111.30 41.55 112.55 40.88Q113.80 40.20 114.88 39.15Q115.95 38.10 116.63 37.02Q117.30 35.95 117.30 35.15Q117.30 34.50 116.85 33.95Q116.40 33.40 115.00 32.65Q114.05 32.10 113.18 31.50Q112.30 30.90 111.85 30.05Q111.45 30.75 110.83 31.73Q110.20 32.70 109.35 33.75Q109.05 34.05 108.75 34.05Q108.45 34.05 108.45 33.80Q108.45 33.65 108.70 33.30Q110.05 31.70 110.70 30.35Q111.35 29 111.60 28.30Q111.80 26.85 112.95 25.55Q114.10 24.25 115.75 23.27Q117.40 22.30 119.13 21.75Q120.85 21.20 122.20 21.20Q123.55 21.20 124.60 21.70Q125.65 22.20 125.65 23.30Q125.65 23.90 125.30 24.60Q124.85 25.55 123.80 26.30Q123.75 26.35 123.65 26.35Q123.25 26.35 123.25 26Q123.25 25.75 123.50 25.50Q123.90 25.15 124.15 24.65Q124.40 24.15 124.40 23.70Q124.40 22.80 123.35 22.80Q122.25 22.80 120.48 23.40Q118.70 24 117.20 24.95Q115.50 26.05 114.35 27.35Q113.20 28.65 113.20 29.65Q113.20 30.15 113.53 30.57Q113.85 31 114.80 31.55Q115.30 31.85 116.20 32.33Q117.10 32.80 117.75 33.20Q119.80 34.45 119.80 35.85Q119.80 37 118.80 38.17Q117.80 39.35 116.23 40.33Q114.65 41.30 112.90 41.90Q111.15 42.50 109.60 42.50ZM128.40 46.45Q127.55 46.45 126.80 46.25Q124.75 45.55 124.25 43.45Q124.20 43.30 124.20 43Q124.20 42.30 124.50 42.30Q124.75 42.30 125.10 43.20Q125.45 44.60 126.80 44.90Q127.10 45 127.55 45.05Q128 45.10 128.40 45.10Q130.25 45.10 131.93 44.05Q133.60 43 135.03 41.38Q136.45 39.75 137.60 38.02Q138.75 36.30 139.50 34.90Q141.70 30.70 143.20 26.38Q144.70 22.05 146.10 17.35Q144.65 18.65 142.90 19.30Q141.15 19.95 139.60 20.10L139.55 20.10Q139.05 20.10 139.05 19.75Q139.05 19.35 139.65 19.25Q141.10 19 142.65 18.02Q144.20 17.05 145.53 15.55Q146.85 14.05 147.55 12.30Q147.65 12 148.25 11.82Q148.85 11.65 149.45 11.65Q150 11.65 150.43 11.80Q150.85 11.95 150.75 12.30Q150.55 12.85 150.43 14Q150.30 15.15 150.20 15.85Q150.05 16.75 150.05 18.45Q150.05 20.60 150.30 23.50Q150.55 26.40 151.13 29.45Q151.70 32.50 152.60 35.15Q153.50 37.80 154.78 39.42Q156.05 41.05 157.75 41.05Q159.50 41.05 161.05 39.35Q162.60 37.65 163.85 34.90Q165.10 32.15 166 28.92Q166.90 25.70 167.38 22.63Q167.85 19.55 167.85 17.25Q167.85 16 167.70 15.10Q167.50 13.75 167.13 12.77Q166.75 11.80 166.35 10.75L166.35 10.70Q166.35 10.50 166.75 10.17Q167.15 9.85 167.35 9.80Q168.10 9.80 168.73 10.50Q169.35 11.20 169.90 12.22Q170.45 13.25 171 14.25Q171.55 15.25 172.20 15.85Q172.60 16.20 172.83 16.30Q173.05 16.40 173.55 16.40L173.85 16.25Q174.25 16.25 174.40 16.32Q174.55 16.40 174.60 16.80Q174.60 17.20 174.23 17.45Q173.85 17.70 173.45 17.80Q172.80 17.80 171.80 17.13Q170.80 16.45 170.30 16.05Q170.35 16.35 170.35 16.65Q170.35 16.95 170.35 17.25Q170.35 20 169.65 23.38Q168.95 26.75 167.73 30.15Q166.50 33.55 164.88 36.40Q163.25 39.25 161.35 41Q159.45 42.75 157.40 42.75Q155 42.75 153.33 41.30Q151.65 39.85 150.53 37.40Q149.40 34.95 148.75 32Q148.10 29.05 147.85 25.98Q147.60 22.90 147.60 20.25Q146.05 24.30 144.53 27.90Q143 31.50 141 35.15Q140.10 36.80 138.83 38.73Q137.55 40.65 135.95 42.42Q134.35 44.20 132.45 45.33Q130.55 46.45 128.40 46.45ZM178.55 40.75Q176.30 40.75 174.65 39.70Q173 38.65 173 36.50Q173 35.35 173.70 33.70Q174.20 32.55 175.55 31.05Q176.90 29.55 178.70 28.13Q180.50 26.70 182.35 25.77Q184.20 24.85 185.70 24.85Q186.25 24.85 186.70 25Q187.55 25.30 187.88 25.95Q188.20 26.60 188.20 27.30Q188.20 27.95 188 28.55Q187.80 29.15 187.50 29.60Q186.60 30.95 184.93 32Q183.25 33.05 181.53 33.65Q179.80 34.25 178.70 34.35L178.60 34.35Q177.95 34.35 177.95 33.95Q177.95 33.70 178.35 33.70Q179.55 33.60 181.38 32.58Q183.20 31.55 184.60 30.45Q185.20 29.95 186.03 29.05Q186.85 28.15 186.85 27.30Q186.85 26.40 186 26.40Q185.55 26.40 185.07 26.60Q184.60 26.80 184.30 26.90Q182.85 27.60 181.10 29.07Q179.35 30.55 177.93 32.38Q176.50 34.20 175.95 36.05Q175.80 36.45 175.75 36.83Q175.70 37.20 175.70 37.55Q175.70 38.75 176.47 39.25Q177.25 39.75 178.35 39.75Q180 39.75 181.75 39.02Q183.50 38.30 185.15 37.15Q186.80 36 188.18 34.67Q189.55 33.35 190.50 32.10Q190.65 31.90 190.85 31.88Q191.05 31.85 191.10 31.95Q191.30 32 191.30 32.23Q191.30 32.45 191.20 32.65Q189.80 34.60 187.82 36.45Q185.85 38.30 183.47 39.52Q181.10 40.75 178.55 40.75ZM190.50 42.50Q188.50 42.50 188.50 41.40Q188.50 40.60 189.35 39.75Q190 39.10 190.80 38.70Q191.60 38.30 191.80 38.30Q192.05 38.30 192.07 38.50Q192.10 38.70 191.85 38.80Q191.35 39.10 190.72 39.63Q190.10 40.15 190.10 40.75Q190.10 41.55 191.05 41.55Q192.20 41.55 193.45 40.88Q194.70 40.20 195.77 39.15Q196.85 38.10 197.52 37.02Q198.20 35.95 198.20 35.15Q198.20 34.50 197.75 33.95Q197.30 33.40 195.90 32.65Q194.95 32.10 194.07 31.50Q193.20 30.90 192.75 30.05Q192.35 30.75 191.72 31.73Q191.10 32.70 190.25 33.75Q189.95 34.05 189.65 34.05Q189.35 34.05 189.35 33.80Q189.35 33.65 189.60 33.30Q190.95 31.70 191.60 30.35Q192.25 29 192.50 28.30Q192.70 26.85 193.85 25.55Q195 24.25 196.65 23.27Q198.30 22.30 200.02 21.75Q201.75 21.20 203.10 21.20Q204.45 21.20 205.50 21.70Q206.55 22.20 206.55 23.30Q206.55 23.90 206.20 24.60Q205.75 25.55 204.70 26.30Q204.65 26.35 204.55 26.35Q204.15 26.35 204.15 26Q204.15 25.75 204.40 25.50Q204.80 25.15 205.05 24.65Q205.30 24.15 205.30 23.70Q205.30 22.80 204.25 22.80Q203.15 22.80 201.38 23.40Q199.60 24 198.10 24.95Q196.40 26.05 195.25 27.35Q194.10 28.65 194.10 29.65Q194.10 30.15 194.42 30.57Q194.75 31 195.70 31.55Q196.20 31.85 197.10 32.33Q198 32.80 198.65 33.20Q200.70 34.45 200.70 35.85Q200.70 37 199.70 38.17Q198.70 39.35 197.13 40.33Q195.55 41.30 193.80 41.90Q192.05 42.50 190.50 42.50ZM207.20 40.50Q206.30 40.50 205.57 40.10Q204.85 39.70 204.50 38.60Q204.45 38.45 204.43 38.30Q204.40 38.15 204.40 37.95Q204.40 36.95 204.85 35.45Q205.30 33.95 205.95 32.55Q205.65 32.95 205.25 33.52Q204.85 34.10 204.10 35Q203.90 35.20 203.65 35.20Q203.30 35.20 203.30 34.80Q203.30 34.50 203.50 34.30Q204.80 32.65 205.82 31.35Q206.85 30.05 207.35 29.15Q207.35 29.05 207.65 28.52Q207.95 28 208.45 27.05Q208.05 27.10 207.78 27.13Q207.50 27.15 207.30 27.15Q206.95 27.15 206.70 26.85Q206.45 26.55 206.65 26.10Q206.90 25.40 207.75 25.30Q208.60 25.20 209.25 25.15Q209.30 25.05 209.45 25.05Q210.05 23.95 210.60 22.90Q211.15 21.85 211.53 21.15Q211.90 20.45 211.90 20.40Q212.90 18.80 213.20 18.27Q213.50 17.75 214 17.65Q214.55 17.60 215.18 17.70Q215.80 17.80 216 18.15Q216.15 18.35 216.15 18.65Q216.15 19.10 215.95 19.52Q215.75 19.95 215.55 20.20Q215.35 20.55 215.03 20.67Q214.70 20.80 214.45 21.30Q213.95 22.25 213.35 23.35Q212.75 24.45 212.10 25.45L212.70 25.40Q213.90 25.30 214.97 25.15Q216.05 25 217.45 25.05Q217.70 25.05 217.97 25.13Q218.25 25.20 218.25 25.35Q218.25 25.55 216.95 25.90Q216.45 26.10 214.78 26.32Q213.10 26.55 211.35 26.75Q210.85 27.70 210.45 28.32Q210.05 28.95 209.90 29.25Q208.80 31.55 207.93 33.42Q207.05 35.30 206.95 36.50Q206.90 36.70 206.90 36.88Q206.90 37.05 206.90 37.25Q206.90 39.25 208.20 39.25Q209 39.25 210.25 38.38Q211.50 37.50 212.80 36.23Q214.10 34.95 215.18 33.77Q216.25 32.60 216.65 32Q216.80 31.85 216.95 31.85Q217.15 31.85 217.28 32Q217.40 32.15 217.30 32.40Q216.85 33.25 215.78 34.52Q214.70 35.80 213.38 37.08Q212.05 38.35 210.80 39.25Q210.15 39.75 209.18 40.13Q208.20 40.50 207.20 40.50ZM235.55 42.30Q232.95 42.30 230.78 41.42Q228.60 40.55 227.32 38.73Q226.05 36.90 226.05 34.05Q226.05 32.45 226.50 30.60Q227.20 27.65 228.82 24.70Q230.45 21.75 232.72 19.15Q235 16.55 237.70 14.52Q240.40 12.50 243.28 11.32Q246.15 10.15 249 10.15Q249.85 10.15 250.75 10.30Q252.75 10.65 253.72 11.77Q254.70 12.90 254.70 14.35Q254.70 16.05 253.60 17.75Q252.50 19.45 250.72 20.97Q248.95 22.50 246.88 23.70Q244.80 24.90 242.80 25.65Q240.80 26.40 239.25 26.50Q238.30 26.55 238.30 25.95Q238.30 25.65 238.63 25.32Q238.95 25 239.55 24.95Q243.45 24.60 246.82 22.57Q250.20 20.55 252 17.05Q252.40 16.30 252.63 15.52Q252.85 14.75 252.85 14.05Q252.85 12.95 252.22 12.17Q251.60 11.40 250.05 11.40Q248.35 11.40 246.05 12.42Q243.75 13.45 241.22 15.30Q238.70 17.15 236.28 19.67Q233.85 22.20 231.93 25.17Q230 28.15 228.95 31.45Q228.30 33.45 228.30 35.15Q228.30 38.20 230.40 39.63Q232.50 41.05 235.85 41.05Q238.75 41.05 242.22 40.05Q245.70 39.05 249 36.98Q252.30 34.90 254.55 31.70Q254.70 31.50 254.90 31.50Q255.10 31.50 255.28 31.70Q255.45 31.90 255.30 32.10Q252.70 35.70 249.32 37.95Q245.95 40.20 242.35 41.25Q238.75 42.30 235.55 42.30ZM257.60 40.55Q256.20 40.55 255.15 39.90Q253.40 38.85 253.40 36.10Q253.40 34.95 253.80 33.45Q254.15 32.20 255.05 30.73Q255.95 29.25 257.18 27.90Q258.40 26.55 259.85 25.70Q261.30 24.85 262.75 24.85Q263.35 24.85 263.80 25Q264.40 25.20 264.82 25.73Q265.25 26.25 265.25 27.05Q265.25 27.90 264.82 28Q264.40 28.10 264.40 27.80Q264.40 27.70 264.43 27.60Q264.45 27.50 264.45 27.45Q264.45 27.05 264.22 26.73Q264 26.40 263.40 26.40Q262.60 26.40 261.43 27.25Q260.25 28.10 259.02 29.52Q257.80 30.95 256.88 32.65Q255.95 34.35 255.65 36.05Q255.60 36.30 255.57 36.52Q255.55 36.75 255.55 37Q255.55 38.15 256.07 38.92Q256.60 39.70 257.75 39.70Q259.15 39.70 260.45 38.63Q261.75 37.55 262.77 36.05Q263.80 34.55 264.30 33.40Q264.70 32.50 264.85 31.85Q265 31.20 265 30.75Q265 30.35 264.93 30.05Q264.85 29.75 264.75 29.55Q264.65 29.25 264.65 29.10Q264.65 28.70 264.97 28.45Q265.30 28.20 265.65 28.20Q265.95 28.20 266.30 28.40Q266.70 28.50 267.40 28.55Q268.10 28.60 268.90 28.60Q269.75 28.60 270.63 28.55Q271.50 28.50 272.15 28.35Q272.25 28.30 272.45 28.30Q272.80 28.30 272.80 28.50Q272.80 28.70 272.45 28.85Q270.70 29.65 269.32 29.70Q267.95 29.75 266.95 29.75Q267.05 31 266.40 32.42Q265.75 33.85 265.05 34.95Q264.20 36.20 263.10 37.50Q262 38.80 260.65 39.67Q259.30 40.55 257.60 40.55ZM275.40 40Q274.90 40 274.32 39.90Q273.75 39.80 273.75 39.20Q273.75 38.95 274.30 38.42Q274.85 37.90 275.50 37.42Q276.15 36.95 276.45 36.95Q276.80 36.95 276.78 37.30Q276.75 37.65 276.75 38.05Q276.75 38.25 276.50 38.73Q276.25 39.20 275.95 39.60Q275.65 40 275.40 40Z"/></g></g></g></svg>