<svg xmlns="http://www.w3.org/2000/svg" width="546.7057739257813px" height="134px" viewBox="-23.352886962890636 8 546.7057739257813 134" style="background: rgba(0, 0, 0, 0);" preserveAspectRatio="xMidYMid"><defs fill="#000000"><filter id="editing-hole" x="-100%" y="-100%" width="300%" height="300%" fill="#000000"><feFlood flood-color="#000" result="black" fill="#000000"/><feMorphology operator="dilate" radius="2" in="SourceGraphic" result="erode" fill="#000000"/><feGaussianBlur in="erode" stdDeviation="4" result="blur" fill="#000000"/><feOffset in="blur" dx="2" dy="2" result="offset" fill="#000000"/><feComposite operator="atop" in="offset" in2="black" result="merge" fill="#000000"/><feComposite operator="in" in="merge" in2="SourceGraphic" result="inner-shadow" fill="#000000"/></filter></defs><g filter="url(#editing-hole)"><g transform="translate(55.766710221767426, 103.2450008392334)"><path d="M14.21 6.09L14.21 6.09Q10.29 6.09 6.93 4.69L6.93 4.69L6.93 4.69Q3.57 3.29 1.58 0.46L1.58 0.46L1.58 0.46Q-0.42-2.38-0.42-6.44L-0.42-6.44L-0.42-6.44Q-0.42-11.41 2.31-13.62L2.31-13.62L2.31-13.62Q5.04-15.82 8.54-15.82L8.54-15.82L8.54-15.82Q6.65-13.79 5.67-11.34L5.67-11.34L5.67-11.34Q4.69-8.89 4.69-6.44L4.69-6.44L4.69-6.44Q4.69-2.24 7.46 0.56L7.46 0.56L7.46 0.56Q10.22 3.36 15.40 3.36L15.40 3.36L15.40 3.36Q18.69 3.36 21.67 2.17L21.67 2.17L21.67 2.17Q24.64 0.98 26.53-1.33L26.53-1.33L26.53-1.33Q28.42-3.64 28.42-6.86L28.42-6.86L28.42-6.86Q28.42-9.66 27.02-11.80L27.02-11.80L27.02-11.80Q25.62-13.93 23.52-15.44L23.52-15.44L23.52-15.44Q21.42-16.94 17.92-19.04L17.92-19.04L17.92-19.04Q14.35-21.14 12.22-22.72L12.22-22.72L12.22-22.72Q10.08-24.29 8.61-26.53L8.61-26.53L8.61-26.53Q7.14-28.77 7.14-31.71L7.14-31.71L7.14-31.71Q7.14-35.77 9.66-40.15L9.66-40.15L9.66-40.15Q12.18-44.52 16.77-47.46L16.77-47.46L16.77-47.46Q21.35-50.40 27.09-50.40L27.09-50.40L27.09-50.40Q30.94-50.40 32.69-48.51L32.69-48.51L32.69-48.51Q34.44-46.62 34.44-43.40L34.44-43.40L34.44-43.40Q34.44-39.90 32.76-35.56L32.76-35.56L32.76-35.56Q31.08-31.22 29.05-28.00L29.05-28.00L29.05-28.00Q26.74-28.49 26.74-31.01L26.74-31.01L26.74-31.01Q26.74-32.34 27.27-34.02L27.27-34.02L27.27-34.02Q27.79-35.70 28.77-38.22L28.77-38.22L28.77-38.22Q29.82-40.95 30.35-42.67L30.35-42.67L30.35-42.67Q30.87-44.38 30.87-45.71L30.87-45.71L30.87-45.71Q30.87-47.18 30.00-47.95L30.00-47.95L30.00-47.95Q29.12-48.72 26.95-48.72L26.95-48.72L26.95-48.72Q22.82-48.72 19.29-46.17L19.29-46.17L19.29-46.17Q15.75-43.61 13.65-39.97L13.65-39.97L13.65-39.97Q11.55-36.33 11.55-33.32L11.55-33.32L11.55-33.32Q11.55-31.08 12.78-29.33L12.78-29.33L12.78-29.33Q14.00-27.58 15.82-26.29L15.82-26.29L15.82-26.29Q17.64-24.99 20.79-23.24L20.79-23.24L20.79-23.24Q24.57-21.07 26.88-19.36L26.88-19.36L26.88-19.36Q29.19-17.64 30.84-15.02L30.84-15.02L30.84-15.02Q32.48-12.39 32.48-8.82L32.48-8.82L32.48-8.82Q32.48-4.20 29.79-0.84L29.79-0.84L29.79-0.84Q27.09 2.52 22.89 4.31L22.89 4.31L22.89 4.31Q18.69 6.09 14.21 6.09L14.21 6.09ZM40.88 3.29L40.88 3.29Q38.57 3.29 37.14 1.79L37.14 1.79L37.14 1.79Q35.70 0.28 35.70-2.52L35.70-2.52L35.70-2.52Q35.70-6.65 38.68-11.76L38.68-11.76L38.68-11.76Q41.65-16.87 46.20-20.44L46.20-20.44L46.20-20.44Q50.75-24.01 55.09-24.01L55.09-24.01L55.09-24.01Q57.82-24.01 59.64-22.54L59.64-22.54L59.64-22.54Q61.46-21.07 61.46-18.76L61.46-18.76L61.46-18.76Q61.46-17.15 60.55-16.45L60.55-16.45L60.55-16.45Q59.64-15.75 58.03-15.75L58.03-15.75L58.03-15.75Q58.38-17.01 58.38-18.20L58.38-18.20L58.38-18.20Q58.38-19.95 57.54-21.04L57.54-21.04L57.54-21.04Q56.70-22.12 54.95-22.12L54.95-22.12L54.95-22.12Q51.87-22.12 48.48-18.69L48.48-18.69L48.48-18.69Q45.08-15.26 42.81-10.50L42.81-10.50L42.81-10.50Q40.53-5.74 40.53-2.31L40.53-2.31L40.53-2.31Q40.53 0.42 42.42 0.42L42.42 0.42L42.42 0.42Q45.22 0.42 49-4.03L49-4.03L49-4.03Q52.78-8.47 57.12-14.84L57.12-14.84L57.12-14.84Q58.03-14.70 58.98-14.25L58.98-14.25L58.98-14.25Q59.92-13.79 59.92-13.09L59.92-13.09L59.92-13.09Q59.92-12.53 59.26-11.31L59.26-11.31L59.26-11.31Q58.59-10.08 58.45-9.87L58.45-9.87L58.45-9.87Q57.26-7.84 56.56-6.27L56.56-6.27L56.56-6.27Q55.86-4.69 55.86-3.36L55.86-3.36L55.86-3.36Q55.86-2.17 56.46-1.23L56.46-1.23L56.46-1.23Q57.05-0.28 58.24-0.28L58.24-0.28L58.24-0.28Q60.27-0.28 63.35-3.19L63.35-3.19L63.35-3.19Q66.43-6.09 69.44-11.34L69.44-11.34L70.14-10.64L70.14-10.64Q68.67-6.93 66.36-4.03L66.36-4.03L66.36-4.03Q64.05-1.12 61.39 0.49L61.39 0.49L61.39 0.49Q58.73 2.10 56.28 2.10L56.28 2.10L56.28 2.10Q53.83 2.10 52.54 0.67L52.54 0.67L52.54 0.67Q51.24-0.77 51.24-2.80L51.24-2.80L51.24-2.80Q51.24-3.71 51.45-4.83L51.45-4.83L51.45-4.83Q48.30-0.63 45.82 1.33L45.82 1.33L45.82 1.33Q43.33 3.29 40.88 3.29L40.88 3.29ZM72.59 2.73L72.59 2.73Q70.49 2.73 69.62 0.74L69.62 0.74L69.62 0.74Q68.74-1.26 68.74-4.97L68.74-4.97L68.74-4.97Q68.74-6.30 69.16-14.14L69.16-14.14L69.16-14.14Q69.30-16.24 69.65-16.84L69.65-16.84L69.65-16.84Q70-17.43 71.40-17.43L71.40-17.43L71.40-17.43Q72.59-17.43 72.91-16.98L72.91-16.98L72.91-16.98Q73.22-16.52 73.22-15.19L73.22-15.19L73.22-15.19Q73.22-13.79 72.94-10.01L72.94-10.01L72.94-10.01Q72.59-6.65 72.59-3.92L72.59-3.92L72.59-3.92Q72.59-1.82 72.94-0.91L72.94-0.91L72.94-0.91Q73.29 0 74.20 0L74.20 0L74.20 0Q76.51 0 79.80-4.73L79.80-4.73L79.80-4.73Q83.09-9.45 85.75-15.33L85.75-15.33L85.75-15.33Q85.89-19.74 86.70-21.49L86.70-21.49L86.70-21.49Q87.50-23.24 88.97-23.24L88.97-23.24L88.97-23.24Q90.16-23.24 90.83-22.37L90.83-22.37L90.83-22.37Q91.49-21.49 91.49-20.58L91.49-20.58L91.49-20.58Q91.49-19.88 90.79-18.62L90.79-18.62L90.79-18.62Q89.95-17.01 89.50-15.44L89.50-15.44L89.50-15.44Q89.04-13.86 89.04-11.20L89.04-11.20L89.04-11.20Q89.04-8.89 89.71-7.39L89.71-7.39L89.71-7.39Q90.37-5.88 92.33-5.88L92.33-5.88L92.33-5.88Q93.87-5.88 95.20-7.07L95.20-7.07L95.20-7.07Q96.53-8.26 97.86-11.06L97.86-11.06L98.77-10.36L98.77-10.36Q96.25-4.48 91.84-4.48L91.84-4.48L91.84-4.48Q89.46-4.48 87.96-6.20L87.96-6.20L87.96-6.20Q86.45-7.91 85.96-11.27L85.96-11.27L85.96-11.27Q83.09-5.53 79.42-1.40L79.42-1.40L79.42-1.40Q75.74 2.73 72.59 2.73L72.59 2.73ZM99.89 3.29L99.89 3.29Q97.58 3.29 96.14 1.79L96.14 1.79L96.14 1.79Q94.71 0.28 94.71-2.52L94.71-2.52L94.71-2.52Q94.71-6.65 97.69-11.76L97.69-11.76L97.69-11.76Q100.66-16.87 105.21-20.44L105.21-20.44L105.21-20.44Q109.76-24.01 114.10-24.01L114.10-24.01L114.10-24.01Q116.83-24.01 118.65-22.54L118.65-22.54L118.65-22.54Q120.47-21.07 120.47-18.76L120.47-18.76L120.47-18.76Q120.47-17.15 119.56-16.45L119.56-16.45L119.56-16.45Q118.65-15.75 117.04-15.75L117.04-15.75L117.04-15.75Q117.39-17.01 117.39-18.20L117.39-18.20L117.39-18.20Q117.39-19.95 116.55-21.04L116.55-21.04L116.55-21.04Q115.71-22.12 113.96-22.12L113.96-22.12L113.96-22.12Q110.88-22.12 107.48-18.69L107.48-18.69L107.48-18.69Q104.09-15.26 101.81-10.50L101.81-10.50L101.81-10.50Q99.54-5.74 99.54-2.31L99.54-2.31L99.54-2.31Q99.54 0.42 101.43 0.42L101.43 0.42L101.43 0.42Q104.23 0.42 108.01-4.03L108.01-4.03L108.01-4.03Q111.79-8.47 116.13-14.84L116.13-14.84L116.13-14.84Q117.04-14.70 117.98-14.25L117.98-14.25L117.98-14.25Q118.93-13.79 118.93-13.09L118.93-13.09L118.93-13.09Q118.93-12.53 118.27-11.31L118.27-11.31L118.27-11.31Q117.60-10.08 117.46-9.87L117.46-9.87L117.46-9.87Q116.27-7.84 115.57-6.27L115.57-6.27L115.57-6.27Q114.87-4.69 114.87-3.36L114.87-3.36L114.87-3.36Q114.87-2.17 115.47-1.23L115.47-1.23L115.47-1.23Q116.06-0.28 117.25-0.28L117.25-0.28L117.25-0.28Q119.28-0.28 122.36-3.19L122.36-3.19L122.36-3.19Q125.44-6.09 128.45-11.34L128.45-11.34L129.15-10.64L129.15-10.64Q127.68-6.93 125.37-4.03L125.37-4.03L125.37-4.03Q123.06-1.12 120.40 0.49L120.40 0.49L120.40 0.49Q117.74 2.10 115.29 2.10L115.29 2.10L115.29 2.10Q112.84 2.10 111.55 0.67L111.55 0.67L111.55 0.67Q110.25-0.77 110.25-2.80L110.25-2.80L110.25-2.80Q110.25-3.71 110.46-4.83L110.46-4.83L110.46-4.83Q107.31-0.63 104.83 1.33L104.83 1.33L104.83 1.33Q102.34 3.29 99.89 3.29L99.89 3.29ZM149.66 1.40L149.66 1.40Q147.28 1.40 146.02 0.18L146.02 0.18L146.02 0.18Q144.76-1.05 144.76-3.08L144.76-3.08L144.76-3.08Q144.76-3.99 145.08-5.22L145.08-5.22L145.08-5.22Q145.39-6.44 145.74-7.63L145.74-7.63L145.74-7.63Q146.16-8.89 146.48-10.29L146.48-10.29L146.48-10.29Q146.79-11.69 146.79-12.81L146.79-12.81L146.79-12.81Q146.79-16.24 143.99-16.24L143.99-16.24L143.99-16.24Q141.33-16.24 138.43-13.44L138.43-13.44L138.43-13.44Q135.52-10.64 133.25-7.21L133.25-7.21L133.25-7.21Q130.97-3.78 128.10 1.05L128.10 1.05L128.10 1.05Q126.91 1.05 125.93 0.67L125.93 0.67L125.93 0.67Q124.95 0.28 124.39-0.49L124.39-0.49L124.39-0.49Q124.39-0.84 125.30-3.01L125.30-3.01L125.30-3.01Q127.05-7.49 128.17-11.17L128.17-11.17L128.17-11.17Q129.29-14.84 129.36-17.71L129.36-17.71L129.36-17.71Q129.85-18.27 130.76-18.73L130.76-18.73L130.76-18.73Q131.67-19.18 132.58-19.18L132.58-19.18L132.58-19.18Q134.47-19.18 134.47-17.36L134.47-17.36L134.47-17.36Q134.47-16.31 133.84-13.69L133.84-13.69L133.84-13.69Q133.21-11.06 132.23-8.12L132.23-8.12L132.23-8.12Q135.59-13.30 139.37-16.87L139.37-16.87L139.37-16.87Q143.15-20.44 146.79-20.44L146.79-20.44L146.79-20.44Q149.38-20.44 150.68-18.59L150.68-18.59L150.68-18.59Q151.97-16.73 151.97-14.14L151.97-14.14L151.97-14.14Q151.97-12.60 151.59-11.20L151.59-11.20L151.59-11.20Q151.20-9.80 150.43-7.98L150.43-7.98L150.43-7.98Q149.80-6.44 149.45-5.32L149.45-5.32L149.45-5.32Q149.10-4.20 149.10-3.08L149.10-3.08L149.10-3.08Q149.10-0.42 151.20-0.42L151.20-0.42L151.20-0.42Q153.58-0.42 156.14-3.57L156.14-3.57L156.14-3.57Q158.69-6.72 161-11.34L161-11.34L161.77-10.43L161.77-10.43Q156.73 1.40 149.66 1.40L149.66 1.40ZM163.03 3.29L163.03 3.29Q160.72 3.29 159.29 1.79L159.29 1.79L159.29 1.79Q157.85 0.28 157.85-2.52L157.85-2.52L157.85-2.52Q157.85-6.65 160.83-11.76L160.83-11.76L160.83-11.76Q163.80-16.87 168.35-20.44L168.35-20.44L168.35-20.44Q172.90-24.01 177.24-24.01L177.24-24.01L177.24-24.01Q179.97-24.01 181.79-22.54L181.79-22.54L181.79-22.54Q183.61-21.07 183.61-18.76L183.61-18.76L183.61-18.76Q183.61-17.15 182.70-16.45L182.70-16.45L182.70-16.45Q181.79-15.75 180.18-15.75L180.18-15.75L180.18-15.75Q180.53-17.01 180.53-18.20L180.53-18.20L180.53-18.20Q180.53-19.95 179.69-21.04L179.69-21.04L179.69-21.04Q178.85-22.12 177.10-22.12L177.10-22.12L177.10-22.12Q174.02-22.12 170.63-18.69L170.63-18.69L170.63-18.69Q167.23-15.26 164.96-10.50L164.96-10.50L164.96-10.50Q162.68-5.74 162.68-2.31L162.68-2.31L162.68-2.31Q162.68 0.42 164.57 0.42L164.57 0.42L164.57 0.42Q167.37 0.42 171.15-4.03L171.15-4.03L171.15-4.03Q174.93-8.47 179.27-14.84L179.27-14.84L179.27-14.84Q180.18-14.70 181.13-14.25L181.13-14.25L181.13-14.25Q182.07-13.79 182.07-13.09L182.07-13.09L182.07-13.09Q182.07-12.53 181.41-11.31L181.41-11.31L181.41-11.31Q180.74-10.08 180.60-9.87L180.60-9.87L180.60-9.87Q179.41-7.84 178.71-6.27L178.71-6.27L178.71-6.27Q178.01-4.69 178.01-3.36L178.01-3.36L178.01-3.36Q178.01-2.17 178.61-1.23L178.61-1.23L178.61-1.23Q179.20-0.28 180.39-0.28L180.39-0.28L180.39-0.28Q182.42-0.28 185.50-3.19L185.50-3.19L185.50-3.19Q188.58-6.09 191.59-11.34L191.59-11.34L192.29-10.64L192.29-10.64Q190.82-6.93 188.51-4.03L188.51-4.03L188.51-4.03Q186.20-1.12 183.54 0.49L183.54 0.49L183.54 0.49Q180.88 2.10 178.43 2.10L178.43 2.10L178.43 2.10Q175.98 2.10 174.69 0.67L174.69 0.67L174.69 0.67Q173.39-0.77 173.39-2.80L173.39-2.80L173.39-2.80Q173.39-3.71 173.60-4.83L173.60-4.83L173.60-4.83Q170.45-0.63 167.97 1.33L167.97 1.33L167.97 1.33Q165.48 3.29 163.03 3.29L163.03 3.29ZM221.48 6.09L221.48 6.09Q218.47 6.09 217.21 4.80L217.21 4.80L217.21 4.80Q215.95 3.50 215.95 1.12L215.95 1.12L215.95 1.12Q215.95-0.70 216.62-3.12L216.62-3.12L216.62-3.12Q217.28-5.53 218.54-9.10L218.54-9.10L218.54-9.10Q221.48-17.57 225.47-28.00L225.47-28.00L225.47-28.00Q229.46-38.43 232.82-45.64L232.82-45.64L232.82-45.64Q225.26-45.50 221.48-45.26L221.48-45.26L221.48-45.26Q217.70-45.01 213.22-44.24L213.22-44.24L213.22-44.24Q213.50-47.53 217.98-48.97L217.98-48.97L217.98-48.97Q222.46-50.40 230.30-50.40L230.30-50.40L230.30-50.40Q235.97-50.40 243.81-49.56L243.81-49.56L243.81-49.56Q246.12-49.28 248.50-49.07L248.50-49.07L248.50-49.07Q250.88-48.86 252.84-48.86L252.84-48.86L252.84-48.86Q250.60-46.90 247.73-46.24L247.73-46.24L247.73-46.24Q244.86-45.57 240.87-45.57L240.87-45.57L235.90-45.64L235.90-45.64Q230.16-31.29 224.91-12.25L224.91-12.25L224.28-9.94L224.28-9.94Q222.67-4.06 222.04-1.16L222.04-1.16L222.04-1.16Q221.41 1.75 221.41 4.55L221.41 4.55L221.41 4.55Q221.41 5.60 221.48 6.09L221.48 6.09ZM246.05 3.29L246.05 3.29Q243.74 3.29 242.31 1.79L242.31 1.79L242.31 1.79Q240.87 0.28 240.87-2.52L240.87-2.52L240.87-2.52Q240.87-6.65 243.85-11.76L243.85-11.76L243.85-11.76Q246.82-16.87 251.37-20.44L251.37-20.44L251.37-20.44Q255.92-24.01 260.26-24.01L260.26-24.01L260.26-24.01Q262.99-24.01 264.81-22.54L264.81-22.54L264.81-22.54Q266.63-21.07 266.63-18.76L266.63-18.76L266.63-18.76Q266.63-17.15 265.72-16.45L265.72-16.45L265.72-16.45Q264.81-15.75 263.20-15.75L263.20-15.75L263.20-15.75Q263.55-17.01 263.55-18.20L263.55-18.20L263.55-18.20Q263.55-19.95 262.71-21.04L262.71-21.04L262.71-21.04Q261.87-22.12 260.12-22.12L260.12-22.12L260.12-22.12Q257.04-22.12 253.65-18.69L253.65-18.69L253.65-18.69Q250.25-15.26 247.98-10.50L247.98-10.50L247.98-10.50Q245.70-5.74 245.70-2.31L245.70-2.31L245.70-2.31Q245.70 0.42 247.59 0.42L247.59 0.42L247.59 0.42Q250.39 0.42 254.17-4.03L254.17-4.03L254.17-4.03Q257.95-8.47 262.29-14.84L262.29-14.84L262.29-14.84Q263.20-14.70 264.15-14.25L264.15-14.25L264.15-14.25Q265.09-13.79 265.09-13.09L265.09-13.09L265.09-13.09Q265.09-12.53 264.43-11.31L264.43-11.31L264.43-11.31Q263.76-10.08 263.62-9.87L263.62-9.87L263.62-9.87Q262.43-7.84 261.73-6.27L261.73-6.27L261.73-6.27Q261.03-4.69 261.03-3.36L261.03-3.36L261.03-3.36Q261.03-2.17 261.63-1.23L261.63-1.23L261.63-1.23Q262.22-0.28 263.41-0.28L263.41-0.28L263.41-0.28Q265.44-0.28 268.52-3.19L268.52-3.19L268.52-3.19Q271.60-6.09 274.61-11.34L274.61-11.34L275.31-10.64L275.31-10.64Q273.84-6.93 271.53-4.03L271.53-4.03L271.53-4.03Q269.22-1.12 266.56 0.49L266.56 0.49L266.56 0.49Q263.90 2.10 261.45 2.10L261.45 2.10L261.45 2.10Q259.00 2.10 257.71 0.67L257.71 0.67L257.71 0.67Q256.41-0.77 256.41-2.80L256.41-2.80L256.41-2.80Q256.41-3.71 256.62-4.83L256.62-4.83L256.62-4.83Q253.47-0.63 250.99 1.33L250.99 1.33L250.99 1.33Q248.50 3.29 246.05 3.29L246.05 3.29ZM279.16 3.22L279.16 3.22Q272.93 3.22 272.93-3.71L272.93-3.71L272.93-3.71Q272.93-6.72 274.02-11.17L274.02-11.17L274.02-11.17Q275.10-15.61 276.99-20.58L276.99-20.58L276.99-20.58Q275.31-20.86 274.47-21.14L274.47-21.14L274.47-22.40L274.47-22.40Q276.99-22.12 277.55-22.12L277.55-22.12L277.55-22.12Q280.63-30.10 284.17-35.95L284.17-35.95L284.17-35.95Q287.70-41.79 289.73-41.79L289.73-41.79L289.73-41.79Q290.29-41.79 290.75-41.37L290.75-41.37L290.75-41.37Q291.20-40.95 291.20-40.25L291.20-40.25L291.20-40.25Q291.20-39.34 290.33-37.59L290.33-37.59L290.33-37.59Q289.45-35.84 287.35-32.20L287.35-32.20L287.35-32.20Q287.00-31.50 285.18-28.32L285.18-28.32L285.18-28.32Q283.36-25.13 281.89-21.91L281.89-21.91L284.48-21.91L284.48-21.91Q290.29-21.91 294.49-22.33L294.49-22.33L294.49-21.07L294.49-21.07Q286.86-20.23 282.17-20.23L282.17-20.23L281.12-20.23L281.12-20.23Q277.27-11.41 277.27-4.97L277.27-4.97L277.27-4.97Q277.27-1.96 278.18-0.67L278.18-0.67L278.18-0.67Q279.09 0.63 281.19 0.63L281.19 0.63L281.19 0.63Q284.76 0.63 288.26-2.56L288.26-2.56L288.26-2.56Q291.76-5.74 294.49-11.34L294.49-11.34L295.40-10.64L295.40-10.64Q292.81-4.55 288.40-0.67L288.40-0.67L288.40-0.67Q283.99 3.22 279.16 3.22L279.16 3.22ZM299.11 3.22L299.11 3.22Q292.88 3.22 292.88-3.71L292.88-3.71L292.88-3.71Q292.88-6.72 293.97-11.17L293.97-11.17L293.97-11.17Q295.05-15.61 296.94-20.58L296.94-20.58L296.94-20.58Q295.26-20.86 294.42-21.14L294.42-21.14L294.42-22.40L294.42-22.40Q296.94-22.12 297.50-22.12L297.50-22.12L297.50-22.12Q300.58-30.10 304.12-35.95L304.12-35.95L304.12-35.95Q307.65-41.79 309.68-41.79L309.68-41.79L309.68-41.79Q310.24-41.79 310.70-41.37L310.70-41.37L310.70-41.37Q311.15-40.95 311.15-40.25L311.15-40.25L311.15-40.25Q311.15-39.34 310.28-37.59L310.28-37.59L310.28-37.59Q309.40-35.84 307.30-32.20L307.30-32.20L307.30-32.20Q306.95-31.50 305.13-28.32L305.13-28.32L305.13-28.32Q303.31-25.13 301.84-21.91L301.84-21.91L304.43-21.91L304.43-21.91Q310.24-21.91 314.44-22.33L314.44-22.33L314.44-21.07L314.44-21.07Q306.81-20.23 302.12-20.23L302.12-20.23L301.07-20.23L301.07-20.23Q297.22-11.41 297.22-4.97L297.22-4.97L297.22-4.97Q297.22-1.96 298.13-0.67L298.13-0.67L298.13-0.67Q299.04 0.63 301.14 0.63L301.14 0.63L301.14 0.63Q304.71 0.63 308.21-2.56L308.21-2.56L308.21-2.56Q311.71-5.74 314.44-11.34L314.44-11.34L315.35-10.64L315.35-10.64Q312.76-4.55 308.35-0.67L308.35-0.67L308.35-0.67Q303.94 3.22 299.11 3.22L299.11 3.22ZM317.94 2.24L317.94 2.24Q315.07 2.24 313.74 0.49L313.74 0.49L313.74 0.49Q312.41-1.26 312.41-4.13L312.41-4.13L312.41-4.13Q312.41-7.00 313.60-10.15L313.60-10.15L313.60-10.15Q314.79-13.30 316.68-15.40L316.68-15.40L316.68-15.40Q318.57-17.50 320.46-17.50L320.46-17.50L320.46-17.50Q321.09-17.50 321.93-17.15L321.93-17.15L321.93-17.15Q321.09-16.45 319.90-14.07L319.90-14.07L319.90-14.07Q318.71-11.69 317.84-9.00L317.84-9.00L317.84-9.00Q316.96-6.30 316.96-4.62L316.96-4.62L316.96-4.62Q316.96-0.63 319.48-0.63L319.48-0.63L319.48-0.63Q320.95-0.63 322.98-2.17L322.98-2.17L322.98-2.17Q325.01-3.71 326.97-6.23L326.97-6.23L326.97-6.23Q325.01-7.84 323.93-10.43L323.93-10.43L323.93-10.43Q322.84-13.02 322.84-15.82L322.84-15.82L322.84-15.82Q322.84-19.46 324.69-22.05L324.69-22.05L324.69-22.05Q326.55-24.64 329.70-24.64L329.70-24.64L329.70-24.64Q332.36-24.64 333.44-23.21L333.44-23.21L333.44-23.21Q334.53-21.77 334.53-19.25L334.53-19.25L334.53-19.25Q334.53-16.59 333.24-13.27L333.24-13.27L333.24-13.27Q331.94-9.94 329.84-6.79L329.84-6.79L329.84-6.79Q331.10-6.09 332.50-6.09L332.50-6.09L332.50-6.09Q334.53-6.09 336.70-7.32L336.70-7.32L336.70-7.32Q338.87-8.54 339.99-11.13L339.99-11.13L340.83-10.43L340.83-10.43Q339.50-7.35 337.05-5.88L337.05-5.88L337.05-5.88Q334.60-4.41 332.01-4.41L332.01-4.41L332.01-4.41Q330.12-4.41 328.65-5.11L328.65-5.11L328.65-5.11Q326.13-1.82 323.30 0.21L323.30 0.21L323.30 0.21Q320.46 2.24 317.94 2.24L317.94 2.24ZM328.23-8.05L328.23-8.05Q330.05-10.78 331.17-13.62L331.17-13.62L331.17-13.62Q332.29-16.45 332.29-18.83L332.29-18.83L332.29-18.83Q332.29-20.79 331.69-21.77L331.69-21.77L331.69-21.77Q331.10-22.75 330.19-22.75L330.19-22.75L330.19-22.75Q329.21-22.75 328.19-21.81L328.19-21.81L328.19-21.81Q327.18-20.86 326.51-19.22L326.51-19.22L326.51-19.22Q325.85-17.57 325.85-15.61L325.85-15.61L325.85-15.61Q325.85-13.44 326.44-11.45L326.44-11.45L326.44-11.45Q327.04-9.45 328.23-8.05L328.23-8.05ZM343.49 2.24L343.49 2.24Q340.62 2.24 339.29 0.49L339.29 0.49L339.29 0.49Q337.96-1.26 337.96-4.13L337.96-4.13L337.96-4.13Q337.96-7.00 339.15-10.15L339.15-10.15L339.15-10.15Q340.34-13.30 342.23-15.40L342.23-15.40L342.23-15.40Q344.12-17.50 346.01-17.50L346.01-17.50L346.01-17.50Q346.64-17.50 347.48-17.15L347.48-17.15L347.48-17.15Q346.64-16.45 345.45-14.07L345.45-14.07L345.45-14.07Q344.26-11.69 343.39-9.00L343.39-9.00L343.39-9.00Q342.51-6.30 342.51-4.62L342.51-4.62L342.51-4.62Q342.51-0.63 345.03-0.63L345.03-0.63L345.03-0.63Q346.50-0.63 348.53-2.17L348.53-2.17L348.53-2.17Q350.56-3.71 352.52-6.23L352.52-6.23L352.52-6.23Q350.56-7.84 349.48-10.43L349.48-10.43L349.48-10.43Q348.39-13.02 348.39-15.82L348.39-15.82L348.39-15.82Q348.39-19.46 350.25-22.05L350.25-22.05L350.25-22.05Q352.10-24.64 355.25-24.64L355.25-24.64L355.25-24.64Q357.91-24.64 359.00-23.21L359.00-23.21L359.00-23.21Q360.08-21.77 360.08-19.25L360.08-19.25L360.08-19.25Q360.08-16.59 358.79-13.27L358.79-13.27L358.79-13.27Q357.49-9.94 355.39-6.79L355.39-6.79L355.39-6.79Q356.65-6.09 358.05-6.09L358.05-6.09L358.05-6.09Q360.08-6.09 362.25-7.32L362.25-7.32L362.25-7.32Q364.42-8.54 365.54-11.13L365.54-11.13L366.38-10.43L366.38-10.43Q365.05-7.35 362.60-5.88L362.60-5.88L362.60-5.88Q360.15-4.41 357.56-4.41L357.56-4.41L357.56-4.41Q355.67-4.41 354.20-5.11L354.20-5.11L354.20-5.11Q351.68-1.82 348.85 0.21L348.85 0.21L348.85 0.21Q346.01 2.24 343.49 2.24L343.49 2.24ZM353.78-8.05L353.78-8.05Q355.60-10.78 356.72-13.62L356.72-13.62L356.72-13.62Q357.84-16.45 357.84-18.83L357.84-18.83L357.84-18.83Q357.84-20.79 357.25-21.77L357.25-21.77L357.25-21.77Q356.65-22.75 355.74-22.75L355.74-22.75L355.74-22.75Q354.76-22.75 353.75-21.81L353.75-21.81L353.75-21.81Q352.73-20.86 352.07-19.22L352.07-19.22L352.07-19.22Q351.40-17.57 351.40-15.61L351.40-15.61L351.40-15.61Q351.40-13.44 352.00-11.45L352.00-11.45L352.00-11.45Q352.59-9.45 353.78-8.05L353.78-8.05ZM371.56 3.57L371.56 3.57Q367.01 3.57 364.91 0.84L364.91 0.84L364.91 0.84Q362.81-1.89 362.81-5.60L362.81-5.60L362.81-5.60Q362.81-8.40 363.79-9.56L363.79-9.56L363.79-9.56Q364.77-10.71 365.93-11.20L365.93-11.20L365.93-11.20Q367.08-11.69 367.29-11.90L367.29-11.90L367.29-11.90Q371.77-16.80 374.22-22.05L374.22-22.05L374.22-22.89L374.22-22.89Q374.22-25.27 375.03-26.46L375.03-26.46L375.03-26.46Q375.83-27.65 376.95-27.65L376.95-27.65L376.95-27.65Q377.51-27.65 377.79-27.41L377.79-27.41L377.79-27.41Q378.07-27.16 378.07-26.74L378.07-26.74L378.07-26.74Q378.07-26.46 377.86-25.59L377.86-25.59L377.86-25.59Q377.65-24.71 377.65-23.66L377.65-23.66L377.65-23.66Q377.65-22.26 378.04-20.69L378.04-20.69L378.04-20.69Q378.42-19.11 379.26-16.59L379.26-16.59L379.26-16.59Q380.24-13.58 380.77-11.34L380.77-11.34L380.77-11.34Q381.29-9.10 381.29-6.79L381.29-6.79L381.29-6.79Q381.29-4.97 380.87-3.36L380.87-3.36L380.87-3.36Q383.39-3.78 385.56-5.64L385.56-5.64L385.56-5.64Q387.73-7.49 389.69-11.27L389.69-11.27L390.32-10.57L390.32-10.57Q389.06-6.93 386.47-4.83L386.47-4.83L386.47-4.83Q383.88-2.73 380.52-2.24L380.52-2.24L380.52-2.24Q379.47 0.63 377.09 2.10L377.09 2.10L377.09 2.10Q374.71 3.57 371.56 3.57L371.56 3.57ZM376.46-3.43L376.46-3.43Q376.74-5.25 376.74-6.72L376.74-6.72L376.74-6.72Q376.74-8.82 376.39-10.92L376.39-10.92L376.39-10.92Q376.04-13.02 375.34-15.75L375.34-15.75L375.34-15.75Q374.71-18.55 374.57-19.39L374.57-19.39L374.57-19.39Q371.00-13.51 367.78-10.29L367.78-10.29L367.78-10.29Q368.90-7.84 371.18-5.95L371.18-5.95L371.18-5.95Q373.45-4.06 376.46-3.43L376.46-3.43ZM371.70 1.12L371.70 1.12Q374.92 1.12 376.11-2.31L376.11-2.31L376.11-2.31Q373.31-2.87 371.00-4.52L371.00-4.52L371.00-4.52Q368.69-6.16 367.50-8.12L367.50-8.12L367.50-8.12Q365.96-8.05 365.96-5.67L365.96-5.67L365.96-5.67Q365.96-3.01 367.54-0.95L367.54-0.95L367.54-0.95Q369.11 1.12 371.70 1.12L371.70 1.12Z" fill="#dcd7c9"/></g></g><style>text {
  font-size: 64px;
  font-family: Arial Black;
  dominant-baseline: central;
  text-anchor: middle;
}</style></svg>